<svg width="24" height="24" viewBox="0 0 24 24" fill="none" xmlns="http://www.w3.org/2000/svg">
<path d="M0.737334 21.1943L6.07067 23.861C6.25576 23.9533 6.4598 24.0014 6.66667 24.0014C6.87354 24.0014 7.07757 23.9533 7.26267 23.861L12 21.4916L16.7373 23.8596C16.922 23.9533 17.1261 24.0023 17.3332 24.0025C17.5402 24.0027 17.7445 23.9542 17.9293 23.861L23.2627 21.1943C23.7147 20.9676 24 20.5063 24 20.001V13.3343C24 12.829 23.7147 12.3676 23.2627 12.141L18.6667 9.84362V4.00096C18.6667 3.49562 18.3813 3.03429 17.9293 2.80762L12.596 0.140955C12.4108 0.0482605 12.2065 0 11.9993 0C11.7922 0 11.5879 0.0482605 11.4027 0.140955L6.06933 2.80762C5.61867 3.03429 5.33333 3.49562 5.33333 4.00096V9.84362L0.737334 12.1423C0.515698 12.2527 0.329264 12.4228 0.199005 12.6333C0.0687447 12.8439 -0.000174134 13.0867 3.30415e-07 13.3343V20.001C3.30415e-07 20.5063 0.285334 20.9676 0.737334 21.1943ZM6.66667 12.1583L9.68533 13.6676L5.80133 15.6103L2.78267 14.101L6.66667 12.1583ZM12 8.82496L16 6.82496V9.84362L12 11.8436V8.82496ZM20.352 13.6676L16.5093 15.589L13.4907 14.0796L17.3333 12.1583L20.352 13.6676ZM6.66667 21.177L6.584 21.1356V18.201L10.6667 16.1583V19.177L6.66667 21.177ZM17.3333 21.177V18.1583L21.3333 16.1583V19.177L17.3333 21.177ZM12 2.82496L15.0187 4.33429L11.176 6.25562L8.15733 4.74629L12 2.82496Z" fill="black"/>
</svg>
