<svg width="12" height="12" viewBox="0 0 12 12" fill="none" xmlns="http://www.w3.org/2000/svg">
<path fill-rule="evenodd" clip-rule="evenodd" d="M11.9062 10.0817L9.25625 7.39807C9.6875 6.64514 9.9125 5.80786 9.9125 4.96433C9.9125 2.22754 7.6875 0 4.95625 0C2.225 0 0 2.22754 0 4.96433C0 7.70112 2.225 9.92866 4.95625 9.92866C5.82812 9.92866 6.69062 9.6881 7.45937 9.22885L10.0969 11.9032C10.1562 11.9625 10.2406 12 10.325 12C10.4094 12 10.4937 11.9656 10.5531 11.9032L11.9062 10.5348C12.0313 10.4067 12.0313 10.2067 11.9062 10.0817V10.0817ZM4.95566 1.93359C6.62441 1.93359 7.98066 3.29262 7.98066 4.96405C7.98066 6.63549 6.62441 7.99452 4.95566 7.99452C3.28691 7.99452 1.93066 6.63549 1.93066 4.96405C1.93066 3.29262 3.28691 1.93359 4.95566 1.93359Z" fill="black"/>
</svg>
